<svg xmlns="http://www.w3.org/2000/svg" viewBox="0 0 488 512"><path fill="#EA4335" d="M488 261.8c0-17.4-1.6-34.1-4.7-50.3H249v95.1h134.9c-5.8 31.2-23.5 57.6-50.1 75.2v62.4h80.8c47.2-43.5 74.4-107.6 74.4-182.4z"/><path fill="#34A853" d="M249 512c67.8 0 124.8-22.5 166.4-61.2l-80.8-62.4c-22.4 15-51.2 24-85.6 24-65.8 0-121.6-44.4-141.6-104.2H23.8v65.5C65.8 458.8 150 512 249 512z"/><path fill="#4A90E2" d="M107.4 315.2c-4.8-14.3-7.6-29.6-7.6-45.2s2.8-30.9 7.6-45.2V158.3H23.8C8.6 190.9 0 224.7 0 256s8.6 65.1 23.8 97.7l83.6-38.5z"/><path fill="#FBBC05" d="M249 100.8c35.4 0 67.2 12.2 92.3 36.1l69.4-69.4C373.8 29.6 316.8 8 249 8 150 8 65.8 61.2 23.8 151.9l83.6 65.5C127.4 145.2 183.2 100.8 249 100.8z"/></svg>